<mxfile host="app.diagrams.net" modified="2023-09-21T11:13:02.080Z" agent="Mozilla/5.0 (Windows NT 10.0; Win64; x64; rv:104.0) Gecko/20100101 Firefox/104.0" etag="Lc6qrkt5vG7e_Sde73ro" version="21.8.0" type="github">
  <diagram name="Page-1" id="x229_gWb_6y-pTExCfIP">
    <mxGraphModel dx="1687" dy="881" grid="1" gridSize="10" guides="1" tooltips="1" connect="1" arrows="1" fold="1" page="1" pageScale="1" pageWidth="850" pageHeight="1100" math="0" shadow="0">
      <root>
        <mxCell id="0" />
        <mxCell id="1" parent="0" />
        <mxCell id="hzeZ1CrDSjYdrLsn2x2q-3" style="edgeStyle=orthogonalEdgeStyle;rounded=0;orthogonalLoop=1;jettySize=auto;html=1;exitX=0.5;exitY=1;exitDx=0;exitDy=0;entryX=0.5;entryY=0;entryDx=0;entryDy=0;" edge="1" parent="1" source="hzeZ1CrDSjYdrLsn2x2q-1" target="hzeZ1CrDSjYdrLsn2x2q-2">
          <mxGeometry relative="1" as="geometry" />
        </mxCell>
        <mxCell id="hzeZ1CrDSjYdrLsn2x2q-1" value="Start" style="ellipse;whiteSpace=wrap;html=1;aspect=fixed;" vertex="1" parent="1">
          <mxGeometry x="385" y="20" width="80" height="80" as="geometry" />
        </mxCell>
        <mxCell id="hzeZ1CrDSjYdrLsn2x2q-2" value="a, b, c" style="shape=parallelogram;perimeter=parallelogramPerimeter;whiteSpace=wrap;html=1;fixedSize=1;" vertex="1" parent="1">
          <mxGeometry x="365" y="130" width="120" height="60" as="geometry" />
        </mxCell>
        <mxCell id="hzeZ1CrDSjYdrLsn2x2q-6" style="edgeStyle=orthogonalEdgeStyle;rounded=0;orthogonalLoop=1;jettySize=auto;html=1;exitX=0.5;exitY=1;exitDx=0;exitDy=0;" edge="1" parent="1" source="hzeZ1CrDSjYdrLsn2x2q-5" target="hzeZ1CrDSjYdrLsn2x2q-7">
          <mxGeometry relative="1" as="geometry">
            <mxPoint x="425" y="360" as="targetPoint" />
          </mxGeometry>
        </mxCell>
        <mxCell id="hzeZ1CrDSjYdrLsn2x2q-5" value="D = (b^2 - 4ac)" style="rounded=0;whiteSpace=wrap;html=1;" vertex="1" parent="1">
          <mxGeometry x="365" y="250" width="120" height="60" as="geometry" />
        </mxCell>
        <mxCell id="hzeZ1CrDSjYdrLsn2x2q-8" style="edgeStyle=orthogonalEdgeStyle;rounded=0;orthogonalLoop=1;jettySize=auto;html=1;" edge="1" parent="1" source="hzeZ1CrDSjYdrLsn2x2q-7" target="hzeZ1CrDSjYdrLsn2x2q-31">
          <mxGeometry relative="1" as="geometry">
            <mxPoint x="670" y="420" as="targetPoint" />
            <Array as="points">
              <mxPoint x="670" y="420" />
            </Array>
          </mxGeometry>
        </mxCell>
        <mxCell id="hzeZ1CrDSjYdrLsn2x2q-18" value="True" style="edgeLabel;html=1;align=center;verticalAlign=middle;resizable=0;points=[];" vertex="1" connectable="0" parent="hzeZ1CrDSjYdrLsn2x2q-8">
          <mxGeometry x="0.1273" relative="1" as="geometry">
            <mxPoint as="offset" />
          </mxGeometry>
        </mxCell>
        <mxCell id="hzeZ1CrDSjYdrLsn2x2q-16" style="edgeStyle=orthogonalEdgeStyle;rounded=0;orthogonalLoop=1;jettySize=auto;html=1;exitX=0;exitY=0.5;exitDx=0;exitDy=0;entryX=0.5;entryY=0;entryDx=0;entryDy=0;" edge="1" parent="1" source="hzeZ1CrDSjYdrLsn2x2q-7" target="hzeZ1CrDSjYdrLsn2x2q-32">
          <mxGeometry relative="1" as="geometry">
            <mxPoint x="270" y="490" as="targetPoint" />
          </mxGeometry>
        </mxCell>
        <mxCell id="hzeZ1CrDSjYdrLsn2x2q-17" value="False" style="edgeLabel;html=1;align=center;verticalAlign=middle;resizable=0;points=[];" vertex="1" connectable="0" parent="hzeZ1CrDSjYdrLsn2x2q-16">
          <mxGeometry x="-0.6571" y="4" relative="1" as="geometry">
            <mxPoint as="offset" />
          </mxGeometry>
        </mxCell>
        <mxCell id="hzeZ1CrDSjYdrLsn2x2q-7" value="D &amp;lt; 0" style="rhombus;whiteSpace=wrap;html=1;" vertex="1" parent="1">
          <mxGeometry x="385" y="380" width="80" height="80" as="geometry" />
        </mxCell>
        <mxCell id="hzeZ1CrDSjYdrLsn2x2q-11" value="" style="edgeStyle=orthogonalEdgeStyle;rounded=0;orthogonalLoop=1;jettySize=auto;html=1;exitX=0.5;exitY=1;exitDx=0;exitDy=0;entryX=0.5;entryY=0;entryDx=0;entryDy=0;" edge="1" parent="1" source="hzeZ1CrDSjYdrLsn2x2q-2" target="hzeZ1CrDSjYdrLsn2x2q-5">
          <mxGeometry relative="1" as="geometry">
            <mxPoint x="425" y="230" as="targetPoint" />
            <mxPoint x="425" y="190" as="sourcePoint" />
          </mxGeometry>
        </mxCell>
        <mxCell id="hzeZ1CrDSjYdrLsn2x2q-25" value="End" style="ellipse;whiteSpace=wrap;html=1;aspect=fixed;" vertex="1" parent="1">
          <mxGeometry x="390" y="840" width="80" height="80" as="geometry" />
        </mxCell>
        <mxCell id="hzeZ1CrDSjYdrLsn2x2q-31" value="Echo (&quot;There are no roots&quot;)" style="shape=document;whiteSpace=wrap;html=1;boundedLbl=1;" vertex="1" parent="1">
          <mxGeometry x="610" y="380" width="120" height="80" as="geometry" />
        </mxCell>
        <mxCell id="hzeZ1CrDSjYdrLsn2x2q-34" style="edgeStyle=orthogonalEdgeStyle;rounded=0;orthogonalLoop=1;jettySize=auto;html=1;exitX=0;exitY=0.5;exitDx=0;exitDy=0;" edge="1" parent="1" source="hzeZ1CrDSjYdrLsn2x2q-32" target="hzeZ1CrDSjYdrLsn2x2q-35">
          <mxGeometry relative="1" as="geometry">
            <mxPoint x="100" y="509.5882352941178" as="targetPoint" />
          </mxGeometry>
        </mxCell>
        <mxCell id="hzeZ1CrDSjYdrLsn2x2q-38" style="edgeStyle=orthogonalEdgeStyle;rounded=0;orthogonalLoop=1;jettySize=auto;html=1;exitX=1;exitY=0.5;exitDx=0;exitDy=0;" edge="1" parent="1" source="hzeZ1CrDSjYdrLsn2x2q-32" target="hzeZ1CrDSjYdrLsn2x2q-39">
          <mxGeometry relative="1" as="geometry">
            <mxPoint x="400" y="509.5882352941178" as="targetPoint" />
          </mxGeometry>
        </mxCell>
        <mxCell id="hzeZ1CrDSjYdrLsn2x2q-32" value="D = 0" style="rhombus;whiteSpace=wrap;html=1;" vertex="1" parent="1">
          <mxGeometry x="210" y="470" width="80" height="80" as="geometry" />
        </mxCell>
        <mxCell id="hzeZ1CrDSjYdrLsn2x2q-36" style="edgeStyle=orthogonalEdgeStyle;rounded=0;orthogonalLoop=1;jettySize=auto;html=1;exitX=0.5;exitY=1;exitDx=0;exitDy=0;" edge="1" parent="1" source="hzeZ1CrDSjYdrLsn2x2q-35" target="hzeZ1CrDSjYdrLsn2x2q-37">
          <mxGeometry relative="1" as="geometry">
            <mxPoint x="109.47058823529414" y="720" as="targetPoint" />
          </mxGeometry>
        </mxCell>
        <mxCell id="hzeZ1CrDSjYdrLsn2x2q-35" value="X1 = -b/2a" style="rounded=0;whiteSpace=wrap;html=1;" vertex="1" parent="1">
          <mxGeometry x="50" y="589.9982352941178" width="120" height="60" as="geometry" />
        </mxCell>
        <mxCell id="hzeZ1CrDSjYdrLsn2x2q-37" value="X" style="shape=document;whiteSpace=wrap;html=1;boundedLbl=1;" vertex="1" parent="1">
          <mxGeometry x="49.470588235294144" y="680" width="120" height="80" as="geometry" />
        </mxCell>
        <mxCell id="hzeZ1CrDSjYdrLsn2x2q-40" style="edgeStyle=orthogonalEdgeStyle;rounded=0;orthogonalLoop=1;jettySize=auto;html=1;exitX=0.5;exitY=1;exitDx=0;exitDy=0;" edge="1" parent="1" source="hzeZ1CrDSjYdrLsn2x2q-39" target="hzeZ1CrDSjYdrLsn2x2q-41">
          <mxGeometry relative="1" as="geometry">
            <mxPoint x="389.47058823529414" y="690" as="targetPoint" />
          </mxGeometry>
        </mxCell>
        <mxCell id="hzeZ1CrDSjYdrLsn2x2q-39" value="&lt;div&gt;X1 = -b + sqrt(D) / 2a&lt;/div&gt;&lt;div&gt;X2 = -b - sqrt(D) / 2a&lt;br&gt;&lt;/div&gt;" style="rounded=0;whiteSpace=wrap;html=1;" vertex="1" parent="1">
          <mxGeometry x="330" y="579.9982352941178" width="120" height="60" as="geometry" />
        </mxCell>
        <mxCell id="hzeZ1CrDSjYdrLsn2x2q-41" value="X1, X2" style="shape=document;whiteSpace=wrap;html=1;boundedLbl=1;" vertex="1" parent="1">
          <mxGeometry x="329.47058823529414" y="650" width="120" height="80" as="geometry" />
        </mxCell>
      </root>
    </mxGraphModel>
  </diagram>
</mxfile>
